<svg width="115" height="40" viewBox="0 0 115 40" fill="none" xmlns="http://www.w3.org/2000/svg">
<path d="M35.144 39H27.416L26.84 25.992C26.68 22.888 26.6 20.12 26.6 17.688C26.6 15.832 26.648 14.072 26.744 12.408L21.608 35.496H14.168L8.69598 12.408C8.88798 15.192 8.98398 17.816 8.98398 20.28C8.98398 22.136 8.93598 24.072 8.83998 26.088L8.26398 39H0.583984L3.07998 5.736H13.016L18.008 28.296L22.664 5.736H32.648L35.144 39Z" fill="#141414"/>
<path d="M48.7344 13.512V39H41.1504V13.512H48.7344ZM44.8944 0.0719986C46.2064 0.0719986 47.2784 0.487999 48.1104 1.32C48.9744 2.12 49.4064 3.144 49.4064 4.392C49.4064 5.64 48.9744 6.68 48.1104 7.512C47.2784 8.312 46.2064 8.712 44.8944 8.712C43.5824 8.712 42.5104 8.312 41.6784 7.512C40.8464 6.68 40.4304 5.64 40.4304 4.392C40.4304 3.144 40.8464 2.12 41.6784 1.32C42.5104 0.487999 43.5824 0.0719986 44.8944 0.0719986Z" fill="#141414"/>
<path d="M69.9612 12.792C70.8892 12.792 71.7372 12.904 72.5052 13.128L71.3052 20.472C70.3452 20.248 69.5772 20.136 69.0012 20.136C67.4972 20.136 66.3452 20.664 65.5452 21.72C64.7772 22.744 64.1692 24.296 63.7212 26.376V39H56.1372V13.512H62.7612L63.3852 18.456C63.9612 16.696 64.8252 15.32 65.9772 14.328C67.1612 13.304 68.4892 12.792 69.9612 12.792Z" fill="#141414"/>
<path d="M83.6109 39.816C81.4029 39.816 79.6749 39.192 78.4269 37.944C77.2109 36.664 76.6029 34.856 76.6029 32.52V3.384L84.1869 2.568V32.232C84.1869 33.288 84.6189 33.816 85.4829 33.816C85.9309 33.816 86.3469 33.736 86.7309 33.576L88.2189 38.952C86.8429 39.528 85.3069 39.816 83.6109 39.816Z" fill="#141414"/>
<path d="M112.554 31.608C112.554 32.568 112.682 33.272 112.938 33.72C113.226 34.168 113.674 34.504 114.282 34.728L112.698 39.672C111.13 39.544 109.85 39.208 108.858 38.664C107.866 38.088 107.098 37.192 106.554 35.976C104.89 38.536 102.33 39.816 98.8745 39.816C96.3465 39.816 94.3305 39.08 92.8265 37.608C91.3225 36.136 90.5705 34.216 90.5705 31.848C90.5705 29.064 91.5945 26.936 93.6425 25.464C95.6905 23.992 98.6505 23.256 102.522 23.256H105.114V22.152C105.114 20.648 104.794 19.624 104.154 19.08C103.514 18.504 102.394 18.216 100.794 18.216C99.9625 18.216 98.9545 18.344 97.7705 18.6C96.5865 18.824 95.3705 19.144 94.1225 19.56L92.3945 14.568C93.9945 13.96 95.6265 13.496 97.2905 13.176C98.9865 12.856 100.554 12.696 101.994 12.696C105.642 12.696 108.314 13.448 110.01 14.952C111.706 16.456 112.554 18.712 112.554 21.72V31.608ZM101.082 34.392C102.81 34.392 104.154 33.576 105.114 31.944V27.432H103.242C101.514 27.432 100.218 27.736 99.3545 28.344C98.5225 28.952 98.1065 29.896 98.1065 31.176C98.1065 32.2 98.3625 33 98.8745 33.576C99.4185 34.12 100.154 34.392 101.082 34.392Z" fill="#141414"/>
</svg>
